<svg xmlns="http://www.w3.org/2000/svg" viewBox="0 0 650 400" xml:space="preserve">
  <title>@tannertanner1</title>
  <desc>
    tannertanner.me
  </desc>
  <style>
    /* Root: oklch(1 0 0) */
    .color {
      fill: #121212;
    }
    /* Dark: oklch(0.145 0 0) */
    @media (prefers-color-scheme: dark) {
      .color {
        fill: #ffffff;
      }
    }
  </style>
  <path fill="none" d="M.01 0h104.22v231H.01Z"/>
  <g class="color">
    <path d="M299.4 278.6c.1-1.6.1-3.3.2-4.9.4-11.2.7-22.5.8-33.7.1-7.2.1-14.3.1-21.5 0-18.6-.5-37.1-1.5-55.7-.7-13.6-1.7-25.6-3-35.9-.4-3.3-.9-6.7-1.4-10q-48.9 0-95.7-1.5c-13-.4-26-1.1-39-2-12.9-1-25-2.2-36.3-3.7-2.6-.3-5.2-.7-7.7-1.1-7.8-1.1-15.5-2.6-23.2-4.3-7.5-1.7-14.4-3.6-20.6-5.7-4.9-1.6-9.7-3.5-14.3-5.7-3.6-1.6-7-3.6-10.1-6-3.8-2.9-6.7-6.2-8.6-9.7-2.2-4-3.3-8.5-3.3-13.1q0-4.35 1.5-8.4c1.2-2.9 3-5.6 5.3-7.7q6.9-6.3 19.5-6.3c2.6 0 5.2.1 7.7.4 8.6.8 19.9 2.8 33.8 6 8.1 1.8 16.3 3.3 24.5 4.4 12.8 1.8 27 3.1 42.4 3.9 28 2 56 3.1 84 3.4 22.2.2 44.4.4 66.7.5h23.2c22.5 0 44.9-.2 67.4-.5 16.1-.2 32.1-.7 48.2-1.3 5.1-.2 10.2-.4 15.3-.7 20.2-1 38.7-2.3 55.7-3.9 16.9-1.6 31.6-3.4 43.9-5.4.6 0 1.3 0 1.9-.1l2.1-.3.3-.1c1.6-.3 3.1-.5 4.4-.5 6.8 0 12.4 1.2 16.9 3.5 2.3 1.2 4.3 2.8 6.1 4.8 4.8 5.2 7.4 12 7.3 19 0 6.5-2.9 12.7-8 16.9-3.7 3.3-8.7 6.1-15 8.5-6.2 2.3-12.6 4.3-19.1 5.9-6.6 1.6-13.7 3.1-21.5 4.3-6.3 1-12.7 1.8-19 2.5-12.7 1.3-25.5 2.3-38.3 3-13.9.8-28.7 1.2-44.2 1.4-30.9.3-61.8.5-92.8.5q4.8 28.65 5.7 66.3c.1 5.9.2 11.8.2 17.6 0 13.2-.2 26.3-.5 39.5-.1 4.6-.3 9.2-.4 13.8-.3 8.9-.8 17.8-1.6 26.6-.7 8.1-1.6 16.1-2.8 24.2-.8 5.4-1.9 10.8-3.2 16-1.4 5.4-3.1 10.4-5.1 14.9-1 2.3-2.1 4.5-3.3 6.7-1.6 2.8-3.5 5.4-5.8 7.7-4.5 4.6-10.7 7.1-17.2 7-6.3 0-12.5-2.3-17.2-6.6-.6-.5-1.3-1.1-1.8-1.7-3.2-3.2-5.5-7.2-6.7-11.6q-1.2-4.05-1.5-9c-.1-1.1-.1-2.2-.1-3.3 0-1.4 0-2.7.1-4.1.1-3.2.4-5.8.9-7.6 1.8-8.8 3-20.6 3.7-35.6z"/>
  </g>
</svg>
