<svg width="578.127" height="316.41" viewBox="0 0 578.127 316.41" xmlns="http://www.w3.org/2000/svg">
  <path d="M263.466 236.833a530 530 0 0 0 .208-4.899 1369 1369 0 0 0 .839-33.684 1645 1645 0 0 0 .137-21.492 1041 1041 0 0 0-1.465-55.664q-1.093-20.401-3.001-35.91a296 296 0 0 0-1.393-9.989q-48.828 0-95.703-1.465a891 891 0 0 1-38.96-2.029q-19.275-1.45-36.307-3.717a512 512 0 0 1-7.741-1.089 319 319 0 0 1-23.168-4.27q-11.221-2.53-20.618-5.689a138 138 0 0 1-14.32-5.666 53.7 53.7 0 0 1-10.091-6.009q-5.662-4.363-8.626-9.746A26.6 26.6 0 0 1 .002 22.461a22.8 22.8 0 0 1 1.502-8.404 20.84 20.84 0 0 1 5.334-7.709Q13.674 0 26.369 0a85 85 0 0 1 7.721.397q12.909 1.19 33.783 5.951A296 296 0 0 0 92.34 10.78q19.234 2.709 42.427 3.868a1403 1403 0 0 0 83.985 3.418 7664 7664 0 0 0 66.65.458 8722 8722 0 0 0 23.193.031 4583 4583 0 0 0 67.383-.489 1956 1956 0 0 0 48.157-1.281 1704 1704 0 0 0 15.32-.672q30.273-1.465 55.664-3.906 25.39-2.441 43.945-5.371a19 19 0 0 0 1.939-.107q1.005-.106 2.114-.315l.342-.066q2.441-.489 4.394-.489 10.218 0 16.886 3.55a21.4 21.4 0 0 1 6.063 4.751 27.95 27.95 0 0 1 7.325 19.043 21.81 21.81 0 0 1-7.985 16.867q-5.552 4.919-14.965 8.524a164 164 0 0 1-19.079 5.891q-9.882 2.452-21.458 4.298a371 371 0 0 1-19.033 2.506 736 736 0 0 1-38.296 3.017q-20.916 1.13-44.223 1.378a8722 8722 0 0 1-92.774.488q4.772 28.633 5.658 66.335a752 752 0 0 1 .202 17.649 1468 1468 0 0 1-.55 39.46 1685 1685 0 0 1-.427 13.763 521 521 0 0 1-1.587 26.611 396 396 0 0 1-2.808 24.17 148 148 0 0 1-3.25 16.045q-2.153 8.136-5.127 14.875a75 75 0 0 1-3.341 6.678 34.6 34.6 0 0 1-5.768 7.685 23.6 23.6 0 0 1-17.182 6.963 25.64 25.64 0 0 1-17.197-6.584 34 34 0 0 1-1.845-1.717 26.75 26.75 0 0 1-6.698-11.607q-1.203-4.089-1.503-8.973a55 55 0 0 1-.1-3.345 100 100 0 0 1 .077-4.086q.197-4.825.899-7.633 2.647-13.232 3.699-35.628Z" vector-effect="non-scaling-stroke" stroke-linecap="round" fill-rule="evenodd" font-size="12" stroke="#000" stroke-width=".945" style="stroke:#000;stroke-width:.25mm;fill:#000"/>
</svg>
